<?xml version="1.0" encoding="utf-8"?>
<!-- Generator: Adobe Illustrator 21.1.0, SVG Export Plug-In . SVG Version: 6.00 Build 0)  -->
<svg version="1.1" id="Layer_1" xmlns="http://www.w3.org/2000/svg" xmlns:xlink="http://www.w3.org/1999/xlink" x="0px" y="0px"
	 viewBox="0 0 472.6 472.6" style="enable-background:new 0 0 472.6 472.6;" xml:space="preserve">
<style type="text/css">
	.st0{fill:#FFFFFF;}
</style>
<g>
	<g>
		<path class="st0" d="M382.1,277.5c-50,0-90.5,40.5-90.5,90.5c0,50,40.5,90.5,90.5,90.5c50,0,90.5-40.5,90.5-90.5
			C472.6,318,432.1,277.5,382.1,277.5z M437.6,377.8H392v45.6h-19.7v-45.6h-45.6v-19.7h45.6v-45.6H392v45.6h45.6V377.8z"/>
	</g>
</g>
<g>
	<g>
		<circle class="st0" cx="207.9" cy="112.3" r="98.1"/>
	</g>
</g>
<g>
	<g>
		<path class="st0" d="M363,259.5c-11.4-12.8-24.2-24.3-38.5-33.9c-1.5-1.1-4.7-3.1-4.7-3.1c-25.1,34.8-66,57.5-112.1,57.5
			c-46.1,0-87-22.7-112.1-57.5c0,0-2.6,1.7-3.9,2.6C36.5,262.4,0,325.8,0,397.6v21.8h284.8c-8.2-15.4-12.8-32.9-12.8-51.5
			C271.9,313.7,311.4,268.6,363,259.5z"/>
	</g>
</g>
</svg>
