<?xml version="1.0" encoding="utf-8"?>
<!-- Generator: Adobe Illustrator 21.1.0, SVG Export Plug-In . SVG Version: 6.00 Build 0)  -->
<svg version="1.1" id="Capa_1" xmlns="http://www.w3.org/2000/svg" xmlns:xlink="http://www.w3.org/1999/xlink" x="0px" y="0px"
	 viewBox="0 0 525.2 525.2" style="enable-background:new 0 0 525.2 525.2;" xml:space="preserve">
<style type="text/css">
	.st0{fill:#FFFFFF;}
</style>
<g>
	<path class="st0" d="M96.8,290.2c-15.2,0-27.7,12.4-27.7,27.7c0,15.1,12.4,27.7,27.7,27.7c15.1,0,27.7-12.5,27.7-27.7
		C124.4,302.6,111.9,290.2,96.8,290.2z M96.8,400.7c-15.2,0-27.7,12.5-27.7,27.7c0,15.2,12.4,27.7,27.7,27.7
		c15.1,0,27.7-12.4,27.7-27.7C124.4,413.3,111.9,400.7,96.8,400.7z M96.8,179.6c-15.2,0-27.7,12.5-27.7,27.7
		c0,15.2,12.4,27.7,27.7,27.7c15.1,0,27.7-12.4,27.7-27.7C124.4,192.1,111.9,179.6,96.8,179.6z M13.8,193.5
		c-7.7,0-13.8,6.1-13.8,13.8s6.1,13.8,13.8,13.8s13.8-6.1,13.8-13.8S21.5,193.5,13.8,193.5z M96.8,69.1c-15.2,0-27.7,12.4-27.7,27.7
		c0,15.1,12.4,27.7,27.7,27.7c15.1,0,27.7-12.5,27.7-27.7C124.4,81.6,111.9,69.1,96.8,69.1z M511.3,221.1c7.7,0,13.8-6.1,13.8-13.8
		s-6.1-13.8-13.8-13.8c-7.7,0-13.8,6.1-13.8,13.8C497.5,215,503.6,221.1,511.3,221.1z M317.9,124.4c15.1,0,27.7-12.5,27.7-27.7
		c0-15.2-12.5-27.7-27.7-27.7c-15.2,0-27.7,12.4-27.7,27.7C290.2,111.9,302.6,124.4,317.9,124.4z M317.9,27.7
		c7.7,0,13.8-6.1,13.8-13.8S325.6,0,317.9,0C310.1,0,304,6.1,304,13.8S310.2,27.7,317.9,27.7z M13.8,304.1
		c-7.7,0-13.8,6.1-13.8,13.8s6.1,13.8,13.8,13.8s13.8-6.1,13.8-13.8S21.5,304.1,13.8,304.1z M207.3,497.5c-7.7,0-13.8,6.1-13.8,13.8
		c0,7.7,6.1,13.8,13.8,13.8s13.8-6.1,13.8-13.8C221.1,503.6,215,497.5,207.3,497.5z M207.3,27.7c7.7,0,13.8-6.1,13.8-13.8
		S215,0,207.3,0s-13.8,6.1-13.8,13.8S199.6,27.7,207.3,27.7z M207.3,124.4c15.2,0,27.7-12.5,27.7-27.7c0-15.2-12.4-27.7-27.7-27.7
		c-15.1,0-27.7,12.4-27.7,27.7C179.6,111.9,192.1,124.4,207.3,124.4z M207.3,276.4c-23,0-41.5,18.5-41.5,41.5s18.5,41.5,41.5,41.5
		s41.5-18.5,41.5-41.5S230.2,276.4,207.3,276.4z M428.4,290.2c-15.1,0-27.7,12.4-27.7,27.7c0,15.1,12.5,27.7,27.7,27.7
		c15.2,0,27.7-12.5,27.7-27.7C456,302.6,443.6,290.2,428.4,290.2z M428.4,400.7c-15.1,0-27.7,12.5-27.7,27.7
		c0,15.2,12.5,27.7,27.7,27.7c15.2,0,27.7-12.4,27.7-27.7C456,413.3,443.6,400.7,428.4,400.7z M428.4,179.6
		c-15.1,0-27.7,12.5-27.7,27.7c0,15.2,12.5,27.7,27.7,27.7c15.2,0,27.7-12.4,27.7-27.7C456,192.1,443.6,179.6,428.4,179.6z
		 M428.4,69.1c-15.1,0-27.7,12.4-27.7,27.7c0,15.1,12.5,27.7,27.7,27.7c15.2,0,27.7-12.5,27.7-27.7C456,81.6,443.6,69.1,428.4,69.1z
		 M511.3,304.1c-7.7,0-13.8,6.1-13.8,13.8s6.1,13.8,13.8,13.8c7.7,0,13.8-6.1,13.8-13.9S519,304.1,511.3,304.1z M317.9,400.7
		c-15.2,0-27.7,12.5-27.7,27.7c0,15.2,12.4,27.7,27.7,27.7c15.1,0,27.7-12.4,27.7-27.7C345.5,413.3,333,400.7,317.9,400.7z
		 M317.9,497.5c-7.7,0-13.8,6.1-13.8,13.8c0,7.7,6.1,13.8,13.8,13.8s13.8-6.1,13.8-13.8C331.7,503.6,325.6,497.5,317.9,497.5z
		 M207.3,165.8c-23,0-41.5,18.5-41.5,41.5s18.5,41.5,41.5,41.5s41.5-18.5,41.5-41.5S230.2,165.8,207.3,165.8z M207.3,400.7
		c-15.1,0-27.7,12.5-27.7,27.7c0,15.2,12.5,27.7,27.7,27.7c15.2,0,27.7-12.4,27.7-27.7C234.9,413.3,222.5,400.7,207.3,400.7z
		 M317.9,276.4c-23,0-41.5,18.5-41.5,41.5s18.5,41.5,41.5,41.5s41.5-18.5,41.5-41.5S340.8,276.4,317.9,276.4z M317.9,165.8
		c-23,0-41.5,18.5-41.5,41.5s18.5,41.5,41.5,41.5s41.5-18.5,41.5-41.5S340.8,165.8,317.9,165.8z"/>
</g>
</svg>
