<?xml version="1.0" encoding="utf-8"?>
<!-- Generator: Adobe Illustrator 21.1.0, SVG Export Plug-In . SVG Version: 6.00 Build 0)  -->
<svg version="1.1" id="Capa_1" xmlns="http://www.w3.org/2000/svg" xmlns:xlink="http://www.w3.org/1999/xlink" x="0px" y="0px"
	 viewBox="0 0 493 493" style="enable-background:new 0 0 493 493;" xml:space="preserve">
<style type="text/css">
	.st0{fill:#FFFFFF;}
</style>
<g>
	<path class="st0" d="M252.3,326.2c0.8-2.3,1.8-4.5,2.8-6.7c-5-7.3-7.7-15.9-7.7-25c0-11.8,4.6-22.8,12.9-31.1
		c8.3-8.3,19.4-12.9,31.2-12.9c9,0,17.6,2.7,24.9,7.7c2.2-1,4.5-1.9,6.8-2.8c3.8-20.5,21.8-36,43.3-36c5,0,9.7,0.9,14.2,2.4
		c8-6,13.3-15.6,13.3-26.4c0-18.3-14.8-33.1-33.1-33.1h-20.2c-3.7-15.8-9.9-30.5-18.2-43.8l14.3-14.3c12.9-12.9,12.9-33.9,0-46.9
		c-13-12.9-34-12.9-46.9,0l-14.3,14.3c-13.3-8.3-28.1-14.5-43.8-18.2V33.2c0-18.3-14.9-33.2-33.2-33.2c-18.3,0-33.1,14.8-33.1,33.2
		v20.2c-15.8,3.7-30.5,9.9-43.8,18.2l-14.3-14.3c-12.9-12.9-33.9-12.9-46.9,0c-13,12.9-13,33.9,0,46.9l14.3,14.3
		c-8.3,13.3-14.5,28.1-18.2,43.8H36.3c-18.3,0-33.1,14.8-33.1,33.1s14.8,33.1,33.1,33.1h20.2c3.7,15.8,9.9,30.5,18.2,43.8
		l-14.3,14.3c-13,12.9-13,33.9,0,46.9c6.5,6.5,15,9.7,23.4,9.7c8.5,0,17-3.2,23.4-9.7l14.3-14.3c13.3,8.3,28.1,14.5,43.8,18.2v20.2
		c0,18.3,14.8,33.1,33.1,33.1c7.6,0,14.6-2.7,20.2-7c-1.5-4.5-2.4-9.3-2.4-14.3C216.3,348,231.8,330,252.3,326.2z M198.5,261.7
		c-36.6,0-66.4-29.7-66.4-66.3c0-36.6,29.7-66.3,66.4-66.3c36.6,0,66.3,29.7,66.3,66.3C264.8,232,235.1,261.7,198.5,261.7z"/>
	<path class="st0" d="M472.5,352.1h-12.3c-2.5-13.4-7.7-25.8-15.1-36.6l8.7-8.7c6.8-6.8,6.8-17.8,0-24.6c-3.4-3.4-7.9-5.1-12.3-5.1
		c-4.5,0-8.9,1.7-12.3,5.1l-8.7,8.7c-10.8-7.4-23.2-12.7-36.6-15.1v-12.3c0-9.6-7.8-17.4-17.4-17.4c-9.6,0-17.4,7.8-17.4,17.4v12.3
		c-13.4,2.5-25.8,7.7-36.6,15.1l-8.7-8.7c-3.4-3.4-7.9-5.1-12.3-5.1c-4.5,0-8.9,1.7-12.3,5.1c-6.8,6.8-6.8,17.8,0,24.6l8.7,8.7
		c-7.4,10.8-12.7,23.2-15.1,36.6h-12.3c-9.6,0-17.4,7.8-17.4,17.4c0,9.6,7.8,17.4,17.4,17.4h12.3c2.5,13.4,7.7,25.8,15.1,36.6
		l-8.7,8.7c-6.8,6.8-6.8,17.8,0,24.6c3.4,3.4,7.8,5.1,12.3,5.1c4.4,0,8.9-1.7,12.3-5.1l8.7-8.7c10.8,7.4,23.2,12.6,36.6,15.1v12.3
		c0,9.6,7.8,17.4,17.4,17.4c9.6,0,17.4-7.8,17.4-17.4v-12.3c13.4-2.5,25.8-7.7,36.6-15.1l8.7,8.7c3.4,3.4,7.9,5.1,12.3,5.1
		c4.4,0,8.9-1.7,12.3-5.1c6.8-6.8,6.8-17.8,0-24.6l-8.7-8.7c7.4-10.8,12.7-23.2,15.1-36.6h12.3c9.6,0,17.4-7.8,17.4-17.4
		C489.9,359.9,482.1,352.1,472.5,352.1z M366.4,405.4c-19.9,0-36-16.1-36-35.9c0-19.9,16.1-36,36-36c19.9,0,35.9,16.1,35.9,36
		C402.3,389.3,386.2,405.4,366.4,405.4z"/>
</g>
</svg>
