<?xml version="1.0" encoding="utf-8"?>
<!-- Generator: Adobe Illustrator 21.1.0, SVG Export Plug-In . SVG Version: 6.00 Build 0)  -->
<svg version="1.1" id="Capa_1" xmlns="http://www.w3.org/2000/svg" xmlns:xlink="http://www.w3.org/1999/xlink" x="0px" y="0px"
	 viewBox="0 0 511.6 511.6" style="enable-background:new 0 0 511.6 511.6;" xml:space="preserve">
<style type="text/css">
	.st0{fill:#FFFFFF;}
</style>
<g>
	<g>
		<path class="st0" d="M319.8,338c0,4.9-1.8,9.2-5.4,12.8c-3.6,3.6-7.9,5.4-12.9,5.4h-91.4c-5,0-9.2-1.8-12.9-5.4
			c-3.6-3.6-5.4-7.9-5.4-12.8v-45.7H0v137c0,12.6,4.5,23.3,13.4,32.3c8.9,8.9,19.7,13.4,32.3,13.4h420.3c12.6,0,23.3-4.5,32.3-13.4
			c8.9-8.9,13.4-19.7,13.4-32.3v-137H319.8V338L319.8,338z"/>
		<rect x="219.3" y="292.4" class="st0" width="73.1" height="36.5"/>
		<path class="st0" d="M498.2,123.1c-8.9-8.9-19.7-13.4-32.3-13.4H365.4V64c0-7.6-2.7-14.1-8-19.4c-5.3-5.3-11.8-8-19.4-8H173.6
			c-7.6,0-14.1,2.7-19.4,8s-8,11.8-8,19.4v45.7H45.7c-12.6,0-23.3,4.5-32.3,13.4C4.5,132,0,142.8,0,155.3v109.6h511.6V155.3
			C511.6,142.8,507.2,132,498.2,123.1z M328.9,109.6H182.7V73.1h146.2V109.6z"/>
	</g>
</g>
</svg>
