<?xml version="1.0" encoding="utf-8"?>
<!-- Generator: Adobe Illustrator 21.1.0, SVG Export Plug-In . SVG Version: 6.00 Build 0)  -->
<svg version="1.1" id="Layer_1" xmlns="http://www.w3.org/2000/svg" xmlns:xlink="http://www.w3.org/1999/xlink" x="0px" y="0px"
	 viewBox="0 0 300 300" style="enable-background:new 0 0 300 300;" xml:space="preserve">
<style type="text/css">
	.st0{fill:#FFFFFF;}
</style>
<g>
	<g>
		<path class="st0" d="M150,0C67.2,0,0,67.2,0,150s67.2,150,150,150s150-67.2,150-150S232.8,0,150,0z M40.7,206.5
			c0-46.9,41.2-46.8,50.3-59.1l1-5.6c-12.8-6.5-21.9-22.2-21.9-40.5c0-24.2,15.7-43.7,35.1-43.7c15.3,0,28.2,12.2,33,29.1
			c-19.4,6.2-33.8,27.2-33.8,52.2c0,17.2,6.8,33.1,17.9,43.1c-1.8,0.9-3.8,1.9-5.5,2.7c-9,4.2-21.4,10.1-30.4,21.8L40.7,206.5
			L40.7,206.5z M150.5,244.1L150.5,244.1l-0.9,0H85.5c0-46.9,41.2-46.8,50.3-59.1l1-5.6c-12.8-6.5-21.9-22.2-21.9-40.5
			c0-24.2,15.7-43.7,35.1-43.7s35.1,19.6,35.1,43.7c0,18.2-8.9,33.8-21.6,40.4l1.2,6.4c10,11.7,49.8,12.4,49.8,58.5L150.5,244.1
			L150.5,244.1z M213.5,206.5L213.5,206.5L213.5,206.5c-9-11.7-21.5-17.6-30.4-21.8c-1.8-0.8-3.7-1.8-5.5-2.7
			c11.1-10.1,17.9-25.9,17.9-43.1c0-25-14.4-46.1-33.8-52.2c4.8-17,17.8-29.1,33-29.1c19.4,0,35.1,19.6,35.1,43.7
			c0,18.2-8.9,33.8-21.6,40.4l1.2,6.4c10,11.7,49.8,12.4,49.8,58.5L213.5,206.5L213.5,206.5z"/>
	</g>
</g>
</svg>
