<?xml version="1.0" encoding="utf-8"?>
<!-- Generator: Adobe Illustrator 21.1.0, SVG Export Plug-In . SVG Version: 6.00 Build 0)  -->
<svg version="1.1" id="Layer_1" xmlns="http://www.w3.org/2000/svg" xmlns:xlink="http://www.w3.org/1999/xlink" x="0px" y="0px"
	 viewBox="0 0 503.6 503.6" style="enable-background:new 0 0 503.6 503.6;" xml:space="preserve">
<style type="text/css">
	.st0{fill:#FFFFFF;}
</style>
<g>
	<g>
		<path class="st0" d="M386.1,58.8h-42v-8.5c0-9.2-7.5-16.7-16.8-16.7h-25.2v-8.5C302.2,11.2,290.9,0,277,0h-50.4
			c-13.9,0-25.2,11.2-25.2,25.1v8.5h-25.2c-9.3,0-16.8,7.5-16.8,16.7v8.5h-42c-23.1,0-42,18.8-42,42v360.9c0,23.1,18.8,42,42,42
			h268.6c23.1,0,42-18.8,42-42V100.7C428.1,77.6,409.2,58.8,386.1,58.8z M176.3,67.1V50.4h33.6c4.6,0,8.4-3.8,8.4-8.4V25.1
			c0-4.6,3.7-8.3,8.4-8.3H277c4.7,0,8.4,3.6,8.4,8.3V42c0,4.6,3.8,8.4,8.4,8.4l33.6-0.1l-0.1,58.9h-151V67.1z M277,419.7H142.7
			c-4.6,0-8.4-3.8-8.4-8.4c0-4.6,3.8-8.4,8.4-8.4H277c4.6,0,8.4,3.8,8.4,8.4C285.4,415.9,281.6,419.7,277,419.7z M277,344.1H142.7
			c-4.6,0-8.4-3.8-8.4-8.4c0-4.6,3.8-8.4,8.4-8.4H277c4.6,0,8.4,3.8,8.4,8.4S281.6,344.1,277,344.1z M277,268.6H142.7
			c-4.6,0-8.4-3.8-8.4-8.4s3.8-8.4,8.4-8.4H277c4.6,0,8.4,3.8,8.4,8.4C285.4,264.8,281.6,268.6,277,268.6z M277,193H142.7
			c-4.6,0-8.4-3.8-8.4-8.4c0-4.6,3.8-8.4,8.4-8.4H277c4.6,0,8.4,3.8,8.4,8.4S281.6,193,277,193z M375.9,391.3l-33.6,42
			c-0.1,0.1-0.2,0.2-0.3,0.3c-0.1,0.1-0.2,0.3-0.3,0.4c-0.5,0.5-1.1,0.7-1.6,1.1c-0.3,0.2-0.6,0.5-1,0.6c-1.1,0.5-2.2,0.8-3.4,0.8
			c-1,0-2-0.2-3-0.6c-0.3-0.1-0.6-0.3-0.8-0.5c-0.5-0.3-1-0.4-1.4-0.8c-0.1-0.1-0.2-0.3-0.3-0.4c-0.1-0.1-0.3-0.1-0.4-0.3L313,417.2
			c-3.3-3.3-3.3-8.6,0-11.9c3.3-3.3,8.6-3.3,11.9,0l10.2,10.2l27.7-34.6c2.9-3.6,8.2-4.2,11.8-1.3
			C378.2,382.4,378.8,387.7,375.9,391.3z M375.9,315.8l-33.6,42c-0.1,0.1-0.2,0.2-0.3,0.3c-0.1,0.1-0.2,0.3-0.3,0.4
			c-0.5,0.5-1.1,0.7-1.6,1.1c-0.3,0.2-0.6,0.5-1,0.6c-1.1,0.5-2.2,0.8-3.4,0.8c-1,0-2-0.2-3-0.6c-0.3-0.1-0.6-0.3-0.8-0.5
			c-0.5-0.3-1-0.4-1.4-0.8c-0.1-0.1-0.2-0.3-0.3-0.4c-0.1-0.1-0.3-0.1-0.4-0.3L313,341.7c-3.3-3.3-3.3-8.6,0-11.9
			c3.3-3.3,8.6-3.3,11.9,0L335,340l27.7-34.6c2.9-3.6,8.2-4.2,11.8-1.3C378.2,306.9,378.8,312.2,375.9,315.8z M375.9,240.3l-33.6,42
			c-0.1,0.1-0.2,0.2-0.3,0.3c-0.1,0.1-0.2,0.3-0.3,0.4c-0.5,0.5-1.1,0.7-1.6,1.1c-0.3,0.2-0.6,0.5-1,0.6c-1.1,0.5-2.2,0.8-3.4,0.8
			c-1,0-2-0.2-3-0.6c-0.3-0.1-0.6-0.3-0.8-0.5c-0.5-0.3-1-0.4-1.4-0.8c-0.1-0.1-0.2-0.3-0.3-0.4c-0.1-0.1-0.3-0.1-0.4-0.3L313,266.1
			c-3.3-3.3-3.3-8.6,0-11.9c3.3-3.3,8.6-3.3,11.9,0l10.2,10.2l27.7-34.6c2.9-3.6,8.2-4.2,11.8-1.3
			C378.2,231.4,378.8,236.6,375.9,240.3z M375.9,164.7l-33.6,42c-0.1,0.1-0.2,0.2-0.3,0.3c-0.1,0.1-0.2,0.3-0.3,0.4
			c-0.5,0.5-1.1,0.7-1.6,1.1c-0.3,0.2-0.6,0.5-1,0.6c-1.1,0.5-2.2,0.8-3.4,0.8c-1,0-2-0.2-3-0.6c-0.3-0.1-0.6-0.3-0.8-0.5
			c-0.5-0.3-1-0.4-1.4-0.8c-0.1-0.1-0.2-0.3-0.3-0.4c-0.1-0.1-0.3-0.1-0.4-0.3L313,190.6c-3.3-3.3-3.3-8.6,0-11.9
			c3.3-3.3,8.6-3.3,11.9,0l10.2,10.2l27.7-34.6c2.9-3.6,8.2-4.2,11.8-1.3C378.2,155.8,378.8,161.1,375.9,164.7z"/>
	</g>
</g>
</svg>
